<mxfile host="Electron" modified="2024-02-01T19:30:30.153Z" agent="Mozilla/5.0 (Windows NT 10.0; Win64; x64) AppleWebKit/537.36 (KHTML, like Gecko) draw.io/22.1.18 Chrome/120.0.6099.199 Electron/28.1.2 Safari/537.36" etag="yT6hiba3fn4y2dTchvXE" version="22.1.18" type="device">
  <diagram name="Page-1" id="C9d8MpuItcUvbLGoyvss">
    <mxGraphModel dx="4247" dy="3472" grid="1" gridSize="10" guides="1" tooltips="1" connect="1" arrows="1" fold="1" page="1" pageScale="1" pageWidth="827" pageHeight="1169" background="#ffffff" math="0" shadow="0">
      <root>
        <mxCell id="0" />
        <mxCell id="1" parent="0" />
        <mxCell id="7sf5Xx8Vd-Fm_SYYMnIb-26" value="" style="rounded=0;whiteSpace=wrap;html=1;fillColor=none;strokeWidth=2;dashed=1;" vertex="1" parent="1">
          <mxGeometry x="-1107" y="-2300" width="1520" height="1000" as="geometry" />
        </mxCell>
        <mxCell id="IalU3Qp8wOLGq1ezxt7x-2" value="API MZK Gdańsk" style="shape=umlActor;verticalLabelPosition=bottom;verticalAlign=top;html=1;outlineConnect=0;fillColor=#0050ef;fontColor=#000000;strokeColor=#001DBC;" parent="1" vertex="1">
          <mxGeometry x="480" y="-1580" width="30" height="60" as="geometry" />
        </mxCell>
        <mxCell id="IalU3Qp8wOLGq1ezxt7x-3" value="Użytkownik" style="shape=umlActor;verticalLabelPosition=bottom;verticalAlign=top;html=1;outlineConnect=0;fillColor=#0050ef;fontColor=#000000;strokeColor=#001DBC;" parent="1" vertex="1">
          <mxGeometry x="-1230" y="-1890" width="30" height="60" as="geometry" />
        </mxCell>
        <mxCell id="IalU3Qp8wOLGq1ezxt7x-4" value="Administrator" style="shape=umlActor;verticalLabelPosition=bottom;verticalAlign=top;html=1;outlineConnect=0;fillColor=#0050ef;fontColor=#000000;strokeColor=#001DBC;" parent="1" vertex="1">
          <mxGeometry x="480" y="-1830" width="30" height="60" as="geometry" />
        </mxCell>
        <mxCell id="IalU3Qp8wOLGq1ezxt7x-5" value="OpenWeather API" style="shape=umlActor;verticalLabelPosition=bottom;verticalAlign=top;html=1;outlineConnect=0;fontColor=#000000;fillColor=#0050ef;strokeColor=#001DBC;" parent="1" vertex="1">
          <mxGeometry x="480" y="-1420" width="30" height="60" as="geometry" />
        </mxCell>
        <mxCell id="IalU3Qp8wOLGq1ezxt7x-7" value="Overpass API" style="shape=umlActor;verticalLabelPosition=bottom;verticalAlign=top;html=1;outlineConnect=0;fillColor=#0050ef;fontColor=#000000;strokeColor=#001DBC;" parent="1" vertex="1">
          <mxGeometry x="-1240" y="-1450" width="30" height="60" as="geometry" />
        </mxCell>
        <mxCell id="IalU3Qp8wOLGq1ezxt7x-8" value="Stadia Maps API" style="shape=umlActor;verticalLabelPosition=bottom;verticalAlign=top;html=1;outlineConnect=0;fillColor=#0050ef;fontColor=#000000;strokeColor=#001DBC;" parent="1" vertex="1">
          <mxGeometry x="-1230" y="-1600" width="30" height="60" as="geometry" />
        </mxCell>
        <mxCell id="IalU3Qp8wOLGq1ezxt7x-14" value="&lt;font color=&quot;#000000&quot;&gt;Przeglądanie widoku mapy&lt;/font&gt;" style="ellipse;whiteSpace=wrap;html=1;fillColor=none;fontColor=default;strokeColor=#006EAF;labelBackgroundColor=none;labelBorderColor=none;labelPosition=center;verticalLabelPosition=middle;align=center;verticalAlign=middle;" parent="1" vertex="1">
          <mxGeometry x="-1030" y="-1680" width="120" height="80" as="geometry" />
        </mxCell>
        <mxCell id="IalU3Qp8wOLGq1ezxt7x-17" value="" style="endArrow=none;html=1;rounded=0;strokeColor=#000000;endFill=0;" parent="1" source="7sf5Xx8Vd-Fm_SYYMnIb-1" target="IalU3Qp8wOLGq1ezxt7x-14" edge="1">
          <mxGeometry width="50" height="50" relative="1" as="geometry">
            <mxPoint x="-220" y="-1690" as="sourcePoint" />
            <mxPoint x="-190" y="-1650" as="targetPoint" />
          </mxGeometry>
        </mxCell>
        <mxCell id="IalU3Qp8wOLGq1ezxt7x-18" value="&lt;font color=&quot;#000000&quot;&gt;Zarządzanie atrakcjami w Gdańsku&lt;/font&gt;" style="ellipse;whiteSpace=wrap;html=1;fillColor=none;fontColor=default;strokeColor=#006EAF;labelBackgroundColor=none;labelBorderColor=none;labelPosition=center;verticalLabelPosition=middle;align=center;verticalAlign=middle;" parent="1" vertex="1">
          <mxGeometry x="150" y="-2030" width="120" height="80" as="geometry" />
        </mxCell>
        <mxCell id="IalU3Qp8wOLGq1ezxt7x-20" value="" style="endArrow=none;html=1;rounded=0;strokeColor=#000000;endFill=0;" parent="1" source="IalU3Qp8wOLGq1ezxt7x-4" target="IalU3Qp8wOLGq1ezxt7x-18" edge="1">
          <mxGeometry width="50" height="50" relative="1" as="geometry">
            <mxPoint x="320" y="-1220" as="sourcePoint" />
            <mxPoint x="380" y="-1170" as="targetPoint" />
          </mxGeometry>
        </mxCell>
        <mxCell id="IalU3Qp8wOLGq1ezxt7x-21" value="&lt;font color=&quot;#000000&quot;&gt;Zalogowanie w systemie&lt;/font&gt;" style="ellipse;whiteSpace=wrap;html=1;fillColor=none;fontColor=default;strokeColor=#006EAF;labelBackgroundColor=none;labelBorderColor=none;labelPosition=center;verticalLabelPosition=middle;align=center;verticalAlign=middle;" parent="1" vertex="1">
          <mxGeometry x="-770" y="-2250" width="120" height="80" as="geometry" />
        </mxCell>
        <mxCell id="IalU3Qp8wOLGq1ezxt7x-22" value="&lt;font color=&quot;#000000&quot;&gt;Rejestracja w systemie&lt;/font&gt;" style="ellipse;whiteSpace=wrap;html=1;fillColor=none;fontColor=default;strokeColor=#006EAF;labelBackgroundColor=none;labelBorderColor=none;labelPosition=center;verticalLabelPosition=middle;align=center;verticalAlign=middle;" parent="1" vertex="1">
          <mxGeometry x="-1040" y="-2260" width="120" height="80" as="geometry" />
        </mxCell>
        <mxCell id="IalU3Qp8wOLGq1ezxt7x-23" value="" style="endArrow=none;html=1;rounded=0;strokeColor=#000000;endFill=0;" parent="1" source="7sf5Xx8Vd-Fm_SYYMnIb-1" target="IalU3Qp8wOLGq1ezxt7x-22" edge="1">
          <mxGeometry width="50" height="50" relative="1" as="geometry">
            <mxPoint x="-285.5" y="-1680" as="sourcePoint" />
            <mxPoint x="-184.5" y="-1600" as="targetPoint" />
          </mxGeometry>
        </mxCell>
        <mxCell id="IalU3Qp8wOLGq1ezxt7x-24" value="" style="endArrow=none;html=1;rounded=0;strokeColor=#000000;endFill=0;" parent="1" source="7sf5Xx8Vd-Fm_SYYMnIb-1" target="IalU3Qp8wOLGq1ezxt7x-21" edge="1">
          <mxGeometry width="50" height="50" relative="1" as="geometry">
            <mxPoint x="-241" y="-1740" as="sourcePoint" />
            <mxPoint x="-140" y="-1660" as="targetPoint" />
          </mxGeometry>
        </mxCell>
        <mxCell id="IalU3Qp8wOLGq1ezxt7x-25" value="&lt;font color=&quot;#000000&quot;&gt;Ocenienie atrakcji turystycznej&lt;/font&gt;" style="ellipse;whiteSpace=wrap;html=1;fillColor=none;fontColor=default;strokeColor=#006EAF;labelBackgroundColor=none;labelBorderColor=none;labelPosition=center;verticalLabelPosition=middle;align=center;verticalAlign=middle;" parent="1" vertex="1">
          <mxGeometry x="-947" y="-1980" width="120" height="80" as="geometry" />
        </mxCell>
        <mxCell id="IalU3Qp8wOLGq1ezxt7x-26" value="&lt;font color=&quot;#000000&quot;&gt;Wyświetlenie dostępnych atrakcji&lt;/font&gt;" style="ellipse;whiteSpace=wrap;html=1;fillColor=none;fontColor=default;strokeColor=#006EAF;labelBackgroundColor=none;labelBorderColor=none;labelPosition=center;verticalLabelPosition=middle;align=center;verticalAlign=middle;" parent="1" vertex="1">
          <mxGeometry x="-520" y="-2250" width="120" height="80" as="geometry" />
        </mxCell>
        <mxCell id="th1LVJvLsEBEdFRdq_l_-1" value="" style="endArrow=none;html=1;rounded=0;strokeColor=#000000;endFill=0;" parent="1" source="7sf5Xx8Vd-Fm_SYYMnIb-1" target="IalU3Qp8wOLGq1ezxt7x-26" edge="1">
          <mxGeometry width="50" height="50" relative="1" as="geometry">
            <mxPoint x="-210" y="-1720" as="sourcePoint" />
            <mxPoint x="-109" y="-1641" as="targetPoint" />
          </mxGeometry>
        </mxCell>
        <mxCell id="th1LVJvLsEBEdFRdq_l_-3" value="" style="endArrow=open;html=1;rounded=0;strokeColor=#000000;endFill=0;dashed=1;" parent="1" source="buizesCZviwUODSCSaA0-46" target="IalU3Qp8wOLGq1ezxt7x-26" edge="1">
          <mxGeometry width="50" height="50" relative="1" as="geometry">
            <mxPoint x="-740" y="-2260" as="sourcePoint" />
            <mxPoint x="-120" y="-1930" as="targetPoint" />
          </mxGeometry>
        </mxCell>
        <mxCell id="buizesCZviwUODSCSaA0-43" value="extends" style="edgeLabel;html=1;align=center;verticalAlign=middle;resizable=0;points=[];" parent="th1LVJvLsEBEdFRdq_l_-3" vertex="1" connectable="0">
          <mxGeometry x="-0.1778" y="1" relative="1" as="geometry">
            <mxPoint y="-1" as="offset" />
          </mxGeometry>
        </mxCell>
        <mxCell id="th1LVJvLsEBEdFRdq_l_-4" value="&lt;font color=&quot;#000000&quot;&gt;Dodawanie opinii i/lub zdjęcia do wybranej atrakcji&lt;/font&gt;" style="ellipse;whiteSpace=wrap;html=1;fillColor=none;fontColor=default;strokeColor=#006EAF;labelBackgroundColor=none;labelBorderColor=none;labelPosition=center;verticalLabelPosition=middle;align=center;verticalAlign=middle;" parent="1" vertex="1">
          <mxGeometry x="-670" y="-2050" width="120" height="80" as="geometry" />
        </mxCell>
        <mxCell id="th1LVJvLsEBEdFRdq_l_-6" value="&lt;font color=&quot;#000000&quot;&gt;Wyznaczenie optymalnej trasy pieszej&lt;/font&gt;" style="ellipse;whiteSpace=wrap;html=1;fillColor=none;fontColor=default;strokeColor=#006EAF;labelBackgroundColor=none;labelBorderColor=none;labelPosition=center;verticalLabelPosition=middle;align=center;verticalAlign=middle;" parent="1" vertex="1">
          <mxGeometry y="-1780" width="120" height="80" as="geometry" />
        </mxCell>
        <mxCell id="th1LVJvLsEBEdFRdq_l_-7" value="" style="endArrow=open;html=1;rounded=0;strokeColor=#000000;endFill=0;dashed=1;" parent="1" source="buizesCZviwUODSCSaA0-52" target="buizesCZviwUODSCSaA0-49" edge="1">
          <mxGeometry width="50" height="50" relative="1" as="geometry">
            <mxPoint x="-261.03255443267744" y="-1656.8849325272267" as="sourcePoint" />
            <mxPoint x="-220" y="-1680" as="targetPoint" />
          </mxGeometry>
        </mxCell>
        <mxCell id="buizesCZviwUODSCSaA0-59" value="includes" style="edgeLabel;html=1;align=center;verticalAlign=middle;resizable=0;points=[];" parent="th1LVJvLsEBEdFRdq_l_-7" vertex="1" connectable="0">
          <mxGeometry x="-0.0331" y="-2" relative="1" as="geometry">
            <mxPoint as="offset" />
          </mxGeometry>
        </mxCell>
        <mxCell id="th1LVJvLsEBEdFRdq_l_-8" value="&lt;font color=&quot;#000000&quot;&gt;Wyznaczenie optymalnej trasy z udziałem komunikacji miejskiej&lt;/font&gt;" style="ellipse;whiteSpace=wrap;html=1;fillColor=none;fontColor=default;strokeColor=#006EAF;labelBackgroundColor=none;labelBorderColor=none;labelPosition=center;verticalLabelPosition=middle;align=center;verticalAlign=middle;" parent="1" vertex="1">
          <mxGeometry x="10" y="-1600" width="120" height="80" as="geometry" />
        </mxCell>
        <mxCell id="th1LVJvLsEBEdFRdq_l_-11" value="&lt;font color=&quot;#000000&quot;&gt;Pobranie aktualnego rozkładu jazdy&lt;/font&gt;" style="ellipse;whiteSpace=wrap;html=1;fillColor=none;fontColor=default;strokeColor=#006EAF;labelBackgroundColor=none;labelBorderColor=none;labelPosition=center;verticalLabelPosition=middle;align=center;verticalAlign=middle;" parent="1" vertex="1">
          <mxGeometry x="220" y="-1590" width="120" height="80" as="geometry" />
        </mxCell>
        <mxCell id="th1LVJvLsEBEdFRdq_l_-12" value="" style="endArrow=open;html=1;rounded=0;strokeColor=#000000;endFill=0;" parent="1" source="th1LVJvLsEBEdFRdq_l_-14" target="IalU3Qp8wOLGq1ezxt7x-5" edge="1">
          <mxGeometry width="50" height="50" relative="1" as="geometry">
            <mxPoint x="210" y="-1580" as="sourcePoint" />
            <mxPoint x="280" y="-1210" as="targetPoint" />
          </mxGeometry>
        </mxCell>
        <mxCell id="th1LVJvLsEBEdFRdq_l_-13" value="" style="endArrow=none;html=1;rounded=0;strokeColor=#000000;endFill=0;dashed=1;startArrow=open;startFill=0;" parent="1" source="th1LVJvLsEBEdFRdq_l_-11" target="th1LVJvLsEBEdFRdq_l_-8" edge="1">
          <mxGeometry width="50" height="50" relative="1" as="geometry">
            <mxPoint x="125" y="-1500" as="sourcePoint" />
            <mxPoint x="75" y="-1500" as="targetPoint" />
          </mxGeometry>
        </mxCell>
        <mxCell id="buizesCZviwUODSCSaA0-40" value="includes" style="edgeLabel;html=1;align=center;verticalAlign=middle;resizable=0;points=[];" parent="th1LVJvLsEBEdFRdq_l_-13" vertex="1" connectable="0">
          <mxGeometry x="-0.0524" y="2" relative="1" as="geometry">
            <mxPoint as="offset" />
          </mxGeometry>
        </mxCell>
        <mxCell id="th1LVJvLsEBEdFRdq_l_-14" value="&lt;font color=&quot;#000000&quot;&gt;Pobieranie danych o pogodzie&lt;/font&gt;" style="ellipse;whiteSpace=wrap;html=1;fillColor=none;fontColor=default;strokeColor=#006EAF;labelBackgroundColor=none;labelBorderColor=none;labelPosition=center;verticalLabelPosition=middle;align=center;verticalAlign=middle;" parent="1" vertex="1">
          <mxGeometry x="50" y="-1430" width="120" height="80" as="geometry" />
        </mxCell>
        <mxCell id="th1LVJvLsEBEdFRdq_l_-15" value="" style="endArrow=open;html=1;rounded=0;strokeColor=#000000;endFill=0;" parent="1" source="th1LVJvLsEBEdFRdq_l_-11" target="IalU3Qp8wOLGq1ezxt7x-2" edge="1">
          <mxGeometry width="50" height="50" relative="1" as="geometry">
            <mxPoint x="250" y="-1450" as="sourcePoint" />
            <mxPoint x="150" y="-1400" as="targetPoint" />
          </mxGeometry>
        </mxCell>
        <mxCell id="th1LVJvLsEBEdFRdq_l_-18" value="" style="endArrow=open;html=1;rounded=0;strokeColor=#000000;endFill=0;dashed=1;startArrow=none;startFill=0;" parent="1" source="th1LVJvLsEBEdFRdq_l_-14" target="buizesCZviwUODSCSaA0-8" edge="1">
          <mxGeometry width="50" height="50" relative="1" as="geometry">
            <mxPoint x="70" y="-1585" as="sourcePoint" />
            <mxPoint x="20" y="-1635" as="targetPoint" />
          </mxGeometry>
        </mxCell>
        <mxCell id="buizesCZviwUODSCSaA0-33" value="extends" style="edgeLabel;html=1;align=center;verticalAlign=middle;resizable=0;points=[];" parent="th1LVJvLsEBEdFRdq_l_-18" vertex="1" connectable="0">
          <mxGeometry x="0.0044" y="1" relative="1" as="geometry">
            <mxPoint as="offset" />
          </mxGeometry>
        </mxCell>
        <mxCell id="th1LVJvLsEBEdFRdq_l_-19" value="&lt;font color=&quot;#000000&quot;&gt;Generowanie widoku mapy&lt;/font&gt;" style="ellipse;whiteSpace=wrap;html=1;fillColor=none;fontColor=default;strokeColor=#006EAF;labelBackgroundColor=none;labelBorderColor=none;labelPosition=center;verticalLabelPosition=middle;align=center;verticalAlign=middle;" parent="1" vertex="1">
          <mxGeometry x="-440" y="-1770" width="120" height="80" as="geometry" />
        </mxCell>
        <mxCell id="th1LVJvLsEBEdFRdq_l_-20" value="" style="endArrow=none;html=1;rounded=0;strokeColor=#000000;endFill=0;dashed=1;startArrow=open;startFill=0;" parent="1" source="th1LVJvLsEBEdFRdq_l_-19" target="IalU3Qp8wOLGq1ezxt7x-14" edge="1">
          <mxGeometry width="50" height="50" relative="1" as="geometry">
            <mxPoint x="-17" y="-1350" as="sourcePoint" />
            <mxPoint x="75" y="-1158" as="targetPoint" />
          </mxGeometry>
        </mxCell>
        <mxCell id="buizesCZviwUODSCSaA0-39" value="includes" style="edgeLabel;html=1;align=center;verticalAlign=middle;resizable=0;points=[];" parent="th1LVJvLsEBEdFRdq_l_-20" vertex="1" connectable="0">
          <mxGeometry x="-0.1103" y="1" relative="1" as="geometry">
            <mxPoint as="offset" />
          </mxGeometry>
        </mxCell>
        <mxCell id="th1LVJvLsEBEdFRdq_l_-21" value="" style="endArrow=open;html=1;rounded=0;strokeColor=#000000;endFill=0;" parent="1" source="th1LVJvLsEBEdFRdq_l_-23" target="IalU3Qp8wOLGq1ezxt7x-8" edge="1">
          <mxGeometry width="50" height="50" relative="1" as="geometry">
            <mxPoint x="-350" y="-1280" as="sourcePoint" />
            <mxPoint x="-208" y="-1290" as="targetPoint" />
          </mxGeometry>
        </mxCell>
        <mxCell id="th1LVJvLsEBEdFRdq_l_-22" value="" style="endArrow=open;html=1;rounded=0;strokeColor=#000000;endFill=0;" parent="1" source="th1LVJvLsEBEdFRdq_l_-24" target="IalU3Qp8wOLGq1ezxt7x-7" edge="1">
          <mxGeometry width="50" height="50" relative="1" as="geometry">
            <mxPoint x="-105" y="-1280" as="sourcePoint" />
            <mxPoint x="190" y="-1180" as="targetPoint" />
          </mxGeometry>
        </mxCell>
        <mxCell id="th1LVJvLsEBEdFRdq_l_-23" value="&lt;font color=&quot;#000000&quot;&gt;Generowanie podkładu mapy&lt;/font&gt;" style="ellipse;whiteSpace=wrap;html=1;fillColor=none;fontColor=default;strokeColor=#006EAF;labelBackgroundColor=none;labelBorderColor=none;labelPosition=center;verticalLabelPosition=middle;align=center;verticalAlign=middle;" parent="1" vertex="1">
          <mxGeometry x="-800" y="-1620" width="120" height="80" as="geometry" />
        </mxCell>
        <mxCell id="th1LVJvLsEBEdFRdq_l_-24" value="&lt;font color=&quot;#000000&quot;&gt;Naniesienie punktów na mapę&lt;/font&gt;" style="ellipse;whiteSpace=wrap;html=1;fillColor=none;fontColor=default;strokeColor=#006EAF;labelBackgroundColor=none;labelBorderColor=none;labelPosition=center;verticalLabelPosition=middle;align=center;verticalAlign=middle;" parent="1" vertex="1">
          <mxGeometry x="-560" y="-1460" width="120" height="80" as="geometry" />
        </mxCell>
        <mxCell id="th1LVJvLsEBEdFRdq_l_-25" value="" style="endArrow=none;html=1;rounded=0;strokeColor=#000000;endFill=0;dashed=1;startArrow=open;startFill=0;" parent="1" source="th1LVJvLsEBEdFRdq_l_-24" target="th1LVJvLsEBEdFRdq_l_-19" edge="1">
          <mxGeometry width="50" height="50" relative="1" as="geometry">
            <mxPoint x="-120" y="-1350" as="sourcePoint" />
            <mxPoint x="-190" y="-1320" as="targetPoint" />
          </mxGeometry>
        </mxCell>
        <mxCell id="buizesCZviwUODSCSaA0-37" value="includes" style="edgeLabel;html=1;align=center;verticalAlign=middle;resizable=0;points=[];" parent="th1LVJvLsEBEdFRdq_l_-25" vertex="1" connectable="0">
          <mxGeometry x="0.089" y="2" relative="1" as="geometry">
            <mxPoint as="offset" />
          </mxGeometry>
        </mxCell>
        <mxCell id="buizesCZviwUODSCSaA0-4" value="" style="endArrow=none;html=1;rounded=0;strokeColor=#000000;endFill=0;dashed=1;startArrow=open;startFill=0;" parent="1" source="th1LVJvLsEBEdFRdq_l_-23" target="th1LVJvLsEBEdFRdq_l_-19" edge="1">
          <mxGeometry width="50" height="50" relative="1" as="geometry">
            <mxPoint x="-150" y="-1360" as="sourcePoint" />
            <mxPoint x="-212" y="-1360" as="targetPoint" />
          </mxGeometry>
        </mxCell>
        <mxCell id="buizesCZviwUODSCSaA0-38" value="includes" style="edgeLabel;html=1;align=center;verticalAlign=middle;resizable=0;points=[];" parent="buizesCZviwUODSCSaA0-4" vertex="1" connectable="0">
          <mxGeometry x="-0.0629" relative="1" as="geometry">
            <mxPoint as="offset" />
          </mxGeometry>
        </mxCell>
        <mxCell id="buizesCZviwUODSCSaA0-8" value="&lt;font color=&quot;#000000&quot;&gt;Wyznaczenie optymalnej trasy&lt;br&gt;&lt;/font&gt;" style="ellipse;whiteSpace=wrap;html=1;fillColor=none;fontColor=default;strokeColor=#006EAF;labelBackgroundColor=none;labelBorderColor=none;labelPosition=center;verticalLabelPosition=middle;align=center;verticalAlign=middle;" parent="1" vertex="1">
          <mxGeometry x="-320" y="-1440" width="120" height="80" as="geometry" />
        </mxCell>
        <mxCell id="buizesCZviwUODSCSaA0-9" value="" style="endArrow=open;html=1;rounded=0;strokeColor=#000000;endFill=0;dashed=1;" parent="1" source="buizesCZviwUODSCSaA0-8" target="th1LVJvLsEBEdFRdq_l_-6" edge="1">
          <mxGeometry width="50" height="50" relative="1" as="geometry">
            <mxPoint x="-90" y="-1620" as="sourcePoint" />
            <mxPoint x="-110" y="-1420" as="targetPoint" />
          </mxGeometry>
        </mxCell>
        <mxCell id="buizesCZviwUODSCSaA0-34" value="includes" style="edgeLabel;html=1;align=center;verticalAlign=middle;resizable=0;points=[];" parent="buizesCZviwUODSCSaA0-9" vertex="1" connectable="0">
          <mxGeometry x="0.0667" y="-2" relative="1" as="geometry">
            <mxPoint as="offset" />
          </mxGeometry>
        </mxCell>
        <mxCell id="buizesCZviwUODSCSaA0-10" value="" style="endArrow=open;html=1;rounded=0;strokeColor=#000000;endFill=0;dashed=1;" parent="1" source="th1LVJvLsEBEdFRdq_l_-8" target="buizesCZviwUODSCSaA0-8" edge="1">
          <mxGeometry width="50" height="50" relative="1" as="geometry">
            <mxPoint x="-80" y="-1674" as="sourcePoint" />
            <mxPoint x="-120" y="-1676" as="targetPoint" />
          </mxGeometry>
        </mxCell>
        <mxCell id="buizesCZviwUODSCSaA0-35" value="extends" style="edgeLabel;html=1;align=center;verticalAlign=middle;resizable=0;points=[];" parent="buizesCZviwUODSCSaA0-10" vertex="1" connectable="0">
          <mxGeometry x="-0.1027" relative="1" as="geometry">
            <mxPoint as="offset" />
          </mxGeometry>
        </mxCell>
        <mxCell id="buizesCZviwUODSCSaA0-12" value="&lt;font color=&quot;#000000&quot;&gt;Pobieranie godzin otwarcia atrakcji&lt;br&gt;&lt;/font&gt;" style="ellipse;whiteSpace=wrap;html=1;fillColor=none;fontColor=default;strokeColor=#006EAF;labelBackgroundColor=none;labelBorderColor=none;labelPosition=center;verticalLabelPosition=middle;align=center;verticalAlign=middle;" parent="1" vertex="1">
          <mxGeometry x="-160" y="-1830" width="120" height="80" as="geometry" />
        </mxCell>
        <mxCell id="buizesCZviwUODSCSaA0-21" value="&lt;font color=&quot;#000000&quot;&gt;Dodawanie atrakcji&lt;/font&gt;" style="ellipse;whiteSpace=wrap;html=1;fillColor=none;fontColor=default;strokeColor=#006EAF;labelBackgroundColor=none;labelBorderColor=none;labelPosition=center;verticalLabelPosition=middle;align=center;verticalAlign=middle;" parent="1" vertex="1">
          <mxGeometry x="200" y="-2230" width="120" height="80" as="geometry" />
        </mxCell>
        <mxCell id="buizesCZviwUODSCSaA0-22" value="&lt;font color=&quot;#000000&quot;&gt;Usuwanie atrakcji&lt;/font&gt;" style="ellipse;whiteSpace=wrap;html=1;fillColor=none;fontColor=default;strokeColor=#006EAF;labelBackgroundColor=none;labelBorderColor=none;labelPosition=center;verticalLabelPosition=middle;align=center;verticalAlign=middle;" parent="1" vertex="1">
          <mxGeometry x="80" y="-1890" width="120" height="80" as="geometry" />
        </mxCell>
        <mxCell id="buizesCZviwUODSCSaA0-23" value="&lt;font color=&quot;#000000&quot;&gt;Edycja atrakcji&lt;/font&gt;" style="ellipse;whiteSpace=wrap;html=1;fillColor=none;fontColor=default;strokeColor=#006EAF;labelBackgroundColor=none;labelBorderColor=none;labelPosition=center;verticalLabelPosition=middle;align=center;verticalAlign=middle;" parent="1" vertex="1">
          <mxGeometry x="-30" y="-1980" width="120" height="80" as="geometry" />
        </mxCell>
        <mxCell id="buizesCZviwUODSCSaA0-27" value="" style="endArrow=open;html=1;rounded=0;strokeColor=#000000;endFill=0;dashed=1;" parent="1" source="buizesCZviwUODSCSaA0-22" target="IalU3Qp8wOLGq1ezxt7x-18" edge="1">
          <mxGeometry width="50" height="50" relative="1" as="geometry">
            <mxPoint x="390" y="-1768" as="sourcePoint" />
            <mxPoint x="299" y="-1757" as="targetPoint" />
          </mxGeometry>
        </mxCell>
        <mxCell id="buizesCZviwUODSCSaA0-28" value="extends" style="edgeLabel;html=1;align=center;verticalAlign=middle;resizable=0;points=[];" parent="buizesCZviwUODSCSaA0-27" vertex="1" connectable="0">
          <mxGeometry x="0.0953" y="-3" relative="1" as="geometry">
            <mxPoint as="offset" />
          </mxGeometry>
        </mxCell>
        <mxCell id="buizesCZviwUODSCSaA0-29" value="" style="endArrow=open;html=1;rounded=0;strokeColor=#000000;endFill=0;dashed=1;" parent="1" source="buizesCZviwUODSCSaA0-21" target="IalU3Qp8wOLGq1ezxt7x-18" edge="1">
          <mxGeometry width="50" height="50" relative="1" as="geometry">
            <mxPoint x="301" y="-1675" as="sourcePoint" />
            <mxPoint x="269" y="-1715" as="targetPoint" />
          </mxGeometry>
        </mxCell>
        <mxCell id="buizesCZviwUODSCSaA0-30" value="extends" style="edgeLabel;html=1;align=center;verticalAlign=middle;resizable=0;points=[];" parent="buizesCZviwUODSCSaA0-29" vertex="1" connectable="0">
          <mxGeometry x="0.0953" y="-3" relative="1" as="geometry">
            <mxPoint as="offset" />
          </mxGeometry>
        </mxCell>
        <mxCell id="buizesCZviwUODSCSaA0-31" value="" style="endArrow=open;html=1;rounded=0;strokeColor=#000000;endFill=0;dashed=1;" parent="1" source="buizesCZviwUODSCSaA0-23" target="IalU3Qp8wOLGq1ezxt7x-18" edge="1">
          <mxGeometry width="50" height="50" relative="1" as="geometry">
            <mxPoint x="301" y="-1675" as="sourcePoint" />
            <mxPoint x="269" y="-1715" as="targetPoint" />
          </mxGeometry>
        </mxCell>
        <mxCell id="buizesCZviwUODSCSaA0-32" value="extends" style="edgeLabel;html=1;align=center;verticalAlign=middle;resizable=0;points=[];" parent="buizesCZviwUODSCSaA0-31" vertex="1" connectable="0">
          <mxGeometry x="0.0953" y="-3" relative="1" as="geometry">
            <mxPoint as="offset" />
          </mxGeometry>
        </mxCell>
        <mxCell id="buizesCZviwUODSCSaA0-44" value="" style="endArrow=open;html=1;rounded=0;strokeColor=#000000;endFill=0;dashed=1;" parent="1" source="th1LVJvLsEBEdFRdq_l_-4" target="IalU3Qp8wOLGq1ezxt7x-25" edge="1">
          <mxGeometry width="50" height="50" relative="1" as="geometry">
            <mxPoint x="-58" y="-1932" as="sourcePoint" />
            <mxPoint x="-10" y="-1850" as="targetPoint" />
          </mxGeometry>
        </mxCell>
        <mxCell id="buizesCZviwUODSCSaA0-45" value="extends" style="edgeLabel;html=1;align=center;verticalAlign=middle;resizable=0;points=[];" parent="buizesCZviwUODSCSaA0-44" vertex="1" connectable="0">
          <mxGeometry x="-0.1778" y="1" relative="1" as="geometry">
            <mxPoint y="-1" as="offset" />
          </mxGeometry>
        </mxCell>
        <mxCell id="buizesCZviwUODSCSaA0-46" value="&lt;font color=&quot;#000000&quot;&gt;Pobieranie ocen i opinii&lt;/font&gt;" style="ellipse;whiteSpace=wrap;html=1;fillColor=none;fontColor=default;strokeColor=#006EAF;labelBackgroundColor=none;labelBorderColor=none;labelPosition=center;verticalLabelPosition=middle;align=center;verticalAlign=middle;" parent="1" vertex="1">
          <mxGeometry x="-210" y="-2250" width="120" height="80" as="geometry" />
        </mxCell>
        <mxCell id="buizesCZviwUODSCSaA0-49" value="&lt;font color=&quot;#000000&quot;&gt;Wybieranie atrakcji&lt;/font&gt;" style="ellipse;whiteSpace=wrap;html=1;fillColor=none;fontColor=default;strokeColor=#006EAF;labelBackgroundColor=none;labelBorderColor=none;labelPosition=center;verticalLabelPosition=middle;align=center;verticalAlign=middle;" parent="1" vertex="1">
          <mxGeometry x="-560" y="-1890" width="120" height="80" as="geometry" />
        </mxCell>
        <mxCell id="buizesCZviwUODSCSaA0-52" value="Tworzenie planu zwiedzania" style="ellipse;whiteSpace=wrap;html=1;fillColor=none;fontColor=default;strokeColor=#006EAF;labelBackgroundColor=none;labelBorderColor=none;labelPosition=center;verticalLabelPosition=middle;align=center;verticalAlign=middle;" parent="1" vertex="1">
          <mxGeometry x="-850" y="-1850" width="120" height="80" as="geometry" />
        </mxCell>
        <mxCell id="buizesCZviwUODSCSaA0-56" value="" style="endArrow=none;html=1;rounded=0;strokeColor=#000000;endFill=0;" parent="1" source="IalU3Qp8wOLGq1ezxt7x-3" target="buizesCZviwUODSCSaA0-52" edge="1">
          <mxGeometry width="50" height="50" relative="1" as="geometry">
            <mxPoint x="-223" y="-1849" as="sourcePoint" />
            <mxPoint x="-247" y="-1921" as="targetPoint" />
          </mxGeometry>
        </mxCell>
        <mxCell id="buizesCZviwUODSCSaA0-62" value="" style="endArrow=classic;html=1;rounded=0;strokeColor=#000000;endFill=1;dashed=1;" parent="1" source="buizesCZviwUODSCSaA0-49" target="IalU3Qp8wOLGq1ezxt7x-26" edge="1">
          <mxGeometry width="50" height="50" relative="1" as="geometry">
            <mxPoint x="-240" y="-1890" as="sourcePoint" />
            <mxPoint x="-320" y="-1820" as="targetPoint" />
          </mxGeometry>
        </mxCell>
        <mxCell id="7sf5Xx8Vd-Fm_SYYMnIb-20" value="uses" style="edgeLabel;html=1;align=center;verticalAlign=middle;resizable=0;points=[];" vertex="1" connectable="0" parent="buizesCZviwUODSCSaA0-62">
          <mxGeometry x="0.116" y="-3" relative="1" as="geometry">
            <mxPoint as="offset" />
          </mxGeometry>
        </mxCell>
        <mxCell id="buizesCZviwUODSCSaA0-63" value="&lt;font color=&quot;#000000&quot;&gt;Tworzenie opisu atrakcji&lt;/font&gt;" style="ellipse;whiteSpace=wrap;html=1;fillColor=none;fontColor=default;strokeColor=#006EAF;labelBackgroundColor=none;labelBorderColor=none;labelPosition=center;verticalLabelPosition=middle;align=center;verticalAlign=middle;" parent="1" vertex="1">
          <mxGeometry x="-40" y="-2170" width="120" height="80" as="geometry" />
        </mxCell>
        <mxCell id="7sf5Xx8Vd-Fm_SYYMnIb-1" value="Gość" style="shape=umlActor;verticalLabelPosition=bottom;verticalAlign=top;html=1;outlineConnect=0;fillColor=#0050ef;fontColor=#000000;strokeColor=#001DBC;" vertex="1" parent="1">
          <mxGeometry x="-1370" y="-1890" width="30" height="60" as="geometry" />
        </mxCell>
        <mxCell id="7sf5Xx8Vd-Fm_SYYMnIb-2" value="" style="endArrow=none;html=1;rounded=0;strokeColor=#000000;endFill=0;" edge="1" parent="1" source="IalU3Qp8wOLGq1ezxt7x-3" target="IalU3Qp8wOLGq1ezxt7x-25">
          <mxGeometry width="50" height="50" relative="1" as="geometry">
            <mxPoint x="-825" y="-1770" as="sourcePoint" />
            <mxPoint x="-687" y="-1954" as="targetPoint" />
          </mxGeometry>
        </mxCell>
        <mxCell id="7sf5Xx8Vd-Fm_SYYMnIb-3" value="&lt;font color=&quot;#000000&quot;&gt;Pobranie opisu atrakcji&lt;/font&gt;" style="ellipse;whiteSpace=wrap;html=1;fillColor=none;fontColor=default;strokeColor=#006EAF;labelBackgroundColor=none;labelBorderColor=none;labelPosition=center;verticalLabelPosition=middle;align=center;verticalAlign=middle;" vertex="1" parent="1">
          <mxGeometry x="-360" y="-1970" width="120" height="80" as="geometry" />
        </mxCell>
        <mxCell id="7sf5Xx8Vd-Fm_SYYMnIb-4" value="" style="endArrow=classic;html=1;rounded=0;strokeColor=#000000;endFill=1;dashed=1;" edge="1" parent="1" source="7sf5Xx8Vd-Fm_SYYMnIb-3" target="buizesCZviwUODSCSaA0-63">
          <mxGeometry width="50" height="50" relative="1" as="geometry">
            <mxPoint x="-281" y="-1592" as="sourcePoint" />
            <mxPoint x="-249" y="-1588" as="targetPoint" />
          </mxGeometry>
        </mxCell>
        <mxCell id="7sf5Xx8Vd-Fm_SYYMnIb-18" value="uses" style="edgeLabel;html=1;align=center;verticalAlign=middle;resizable=0;points=[];" vertex="1" connectable="0" parent="7sf5Xx8Vd-Fm_SYYMnIb-4">
          <mxGeometry x="-0.1667" y="-1" relative="1" as="geometry">
            <mxPoint as="offset" />
          </mxGeometry>
        </mxCell>
        <mxCell id="7sf5Xx8Vd-Fm_SYYMnIb-5" value="" style="endArrow=open;html=1;rounded=0;strokeColor=#000000;endFill=0;dashed=1;" edge="1" parent="1" source="IalU3Qp8wOLGq1ezxt7x-26" target="7sf5Xx8Vd-Fm_SYYMnIb-3">
          <mxGeometry width="50" height="50" relative="1" as="geometry">
            <mxPoint x="-486" y="-1827" as="sourcePoint" />
            <mxPoint x="-314" y="-1933" as="targetPoint" />
          </mxGeometry>
        </mxCell>
        <mxCell id="7sf5Xx8Vd-Fm_SYYMnIb-6" value="includes" style="edgeLabel;html=1;align=center;verticalAlign=middle;resizable=0;points=[];" vertex="1" connectable="0" parent="7sf5Xx8Vd-Fm_SYYMnIb-5">
          <mxGeometry x="-0.1778" y="1" relative="1" as="geometry">
            <mxPoint y="-1" as="offset" />
          </mxGeometry>
        </mxCell>
        <mxCell id="7sf5Xx8Vd-Fm_SYYMnIb-7" value="" style="endArrow=open;html=1;rounded=0;strokeColor=#000000;endFill=0;dashed=1;" edge="1" parent="1" source="buizesCZviwUODSCSaA0-49" target="buizesCZviwUODSCSaA0-12">
          <mxGeometry width="50" height="50" relative="1" as="geometry">
            <mxPoint x="-560" y="-1738" as="sourcePoint" />
            <mxPoint x="-480" y="-1702" as="targetPoint" />
          </mxGeometry>
        </mxCell>
        <mxCell id="7sf5Xx8Vd-Fm_SYYMnIb-8" value="includes" style="edgeLabel;html=1;align=center;verticalAlign=middle;resizable=0;points=[];" vertex="1" connectable="0" parent="7sf5Xx8Vd-Fm_SYYMnIb-7">
          <mxGeometry x="-0.0331" y="-2" relative="1" as="geometry">
            <mxPoint as="offset" />
          </mxGeometry>
        </mxCell>
        <mxCell id="7sf5Xx8Vd-Fm_SYYMnIb-9" value="" style="endArrow=none;html=1;rounded=0;strokeColor=#000000;endFill=0;dashed=1;startArrow=open;startFill=0;" edge="1" parent="1" source="buizesCZviwUODSCSaA0-8" target="buizesCZviwUODSCSaA0-12">
          <mxGeometry width="50" height="50" relative="1" as="geometry">
            <mxPoint x="302" y="-1491" as="sourcePoint" />
            <mxPoint x="-330" y="-1580" as="targetPoint" />
          </mxGeometry>
        </mxCell>
        <mxCell id="7sf5Xx8Vd-Fm_SYYMnIb-10" value="includes" style="edgeLabel;html=1;align=center;verticalAlign=middle;resizable=0;points=[];" vertex="1" connectable="0" parent="7sf5Xx8Vd-Fm_SYYMnIb-9">
          <mxGeometry x="-0.0524" y="2" relative="1" as="geometry">
            <mxPoint as="offset" />
          </mxGeometry>
        </mxCell>
        <mxCell id="7sf5Xx8Vd-Fm_SYYMnIb-11" value="" style="endArrow=classic;html=1;rounded=0;strokeColor=#000000;endFill=1;dashed=1;" edge="1" parent="1" source="buizesCZviwUODSCSaA0-12" target="7sf5Xx8Vd-Fm_SYYMnIb-3">
          <mxGeometry width="50" height="50" relative="1" as="geometry">
            <mxPoint x="-55" y="-1941" as="sourcePoint" />
            <mxPoint x="15" y="-1759" as="targetPoint" />
          </mxGeometry>
        </mxCell>
        <mxCell id="7sf5Xx8Vd-Fm_SYYMnIb-19" value="uses" style="edgeLabel;html=1;align=center;verticalAlign=middle;resizable=0;points=[];" vertex="1" connectable="0" parent="7sf5Xx8Vd-Fm_SYYMnIb-11">
          <mxGeometry x="0.0755" y="-2" relative="1" as="geometry">
            <mxPoint as="offset" />
          </mxGeometry>
        </mxCell>
        <mxCell id="7sf5Xx8Vd-Fm_SYYMnIb-13" value="" style="endArrow=none;html=1;rounded=0;strokeColor=#000000;endFill=0;dashed=1;startArrow=open;startFill=0;" edge="1" parent="1" source="th1LVJvLsEBEdFRdq_l_-24" target="buizesCZviwUODSCSaA0-8">
          <mxGeometry width="50" height="50" relative="1" as="geometry">
            <mxPoint x="-893" y="-1347" as="sourcePoint" />
            <mxPoint x="-832" y="-1453" as="targetPoint" />
          </mxGeometry>
        </mxCell>
        <mxCell id="7sf5Xx8Vd-Fm_SYYMnIb-14" value="includes" style="edgeLabel;html=1;align=center;verticalAlign=middle;resizable=0;points=[];" vertex="1" connectable="0" parent="7sf5Xx8Vd-Fm_SYYMnIb-13">
          <mxGeometry x="0.089" y="2" relative="1" as="geometry">
            <mxPoint as="offset" />
          </mxGeometry>
        </mxCell>
        <mxCell id="7sf5Xx8Vd-Fm_SYYMnIb-16" value="" style="endArrow=block;html=1;rounded=0;strokeColor=#000000;endFill=1;startArrow=none;startFill=0;" edge="1" parent="1" source="IalU3Qp8wOLGq1ezxt7x-3" target="7sf5Xx8Vd-Fm_SYYMnIb-1">
          <mxGeometry width="50" height="50" relative="1" as="geometry">
            <mxPoint x="-977" y="-1810" as="sourcePoint" />
            <mxPoint x="-998" y="-2160" as="targetPoint" />
          </mxGeometry>
        </mxCell>
        <mxCell id="7sf5Xx8Vd-Fm_SYYMnIb-21" value="" style="endArrow=open;html=1;rounded=0;strokeColor=#000000;endFill=0;dashed=1;" edge="1" parent="1" source="buizesCZviwUODSCSaA0-21" target="buizesCZviwUODSCSaA0-63">
          <mxGeometry width="50" height="50" relative="1" as="geometry">
            <mxPoint x="230" y="-2090" as="sourcePoint" />
            <mxPoint x="488" y="-2028" as="targetPoint" />
          </mxGeometry>
        </mxCell>
        <mxCell id="7sf5Xx8Vd-Fm_SYYMnIb-22" value="includes" style="edgeLabel;html=1;align=center;verticalAlign=middle;resizable=0;points=[];" vertex="1" connectable="0" parent="7sf5Xx8Vd-Fm_SYYMnIb-21">
          <mxGeometry x="-0.1778" y="1" relative="1" as="geometry">
            <mxPoint y="-1" as="offset" />
          </mxGeometry>
        </mxCell>
      </root>
    </mxGraphModel>
  </diagram>
</mxfile>
